<svg version="1.1" id="Layer_1" xmlns="http://www.w3.org/2000/svg" xmlns:xlink="http://www.w3.org/1999/xlink" x="0px" y="0px"
	 width="100%" viewBox="0 0 903 192" enable-background="new 0 0 903 192" xml:space="preserve">
<path fill="#030303" opacity="1.000000" stroke="none" 
	d="
M669.000000,193.000000 
	C446.050781,193.000000 223.601562,193.000000 1.076170,193.000000 
	C1.076170,129.065460 1.076170,65.130814 1.076170,1.098080 
	C301.999969,1.098080 603.000000,1.098080 903.973083,1.098080 
	C903.973083,65.065094 903.973083,129.032562 903.973083,193.000000 
	C825.797424,193.000000 747.648743,193.000000 669.000000,193.000000 
M127.514580,108.499710 
	C127.514603,113.328766 127.576477,118.158760 127.503021,122.986702 
	C127.284531,137.346848 134.093124,148.190430 144.927628,156.685150 
	C155.911133,165.296677 168.179413,170.330841 182.611664,168.583237 
	C185.834564,168.192978 189.354538,169.778183 192.479340,169.156052 
	C198.730057,167.911545 205.096558,166.434937 210.891525,163.870621 
	C226.998734,156.743088 238.794662,145.255508 240.223572,126.909332 
	C241.383835,112.012398 240.904999,96.935730 240.264481,81.976822 
	C240.016190,76.178207 238.320419,69.948051 235.568344,64.838608 
	C225.536850,46.214336 208.049103,39.107227 188.266037,37.170265 
	C175.146805,35.885757 162.554688,39.047768 151.091293,45.906364 
	C135.740158,55.091022 126.595467,67.821510 127.462227,86.520554 
	C127.785721,93.499420 127.514557,100.505852 127.514580,108.499710 
M43.132069,165.716873 
	C52.192364,167.768677 61.156464,170.049057 70.675377,168.630707 
	C74.426987,168.071701 78.549782,169.931152 82.281204,169.323654 
	C91.613098,167.804352 100.660172,165.678162 109.202759,160.762329 
	C128.843002,149.460312 131.640381,120.163742 116.480637,105.730873 
	C104.199989,94.039055 88.349075,90.746788 72.674591,86.996452 
	C64.926582,85.142632 56.348343,84.762405 52.278465,76.036316 
	C52.042938,75.531334 51.512238,74.690529 51.652084,74.554611 
	C53.950764,72.320549 56.003284,69.127495 58.776291,68.248589 
	C63.203983,66.845230 68.112015,66.773506 72.837128,66.529823 
	C83.423813,65.983841 90.757416,69.940933 92.193573,81.448166 
	C93.113136,88.816238 93.905891,88.761505 102.224854,87.392906 
	C105.384247,86.873131 108.894615,86.787537 111.539276,85.272270 
	C114.778519,83.416367 118.094696,80.747246 119.945625,77.590187 
	C125.926712,67.388435 119.238754,54.669907 110.586670,48.239948 
	C102.866722,42.502712 94.067329,39.469963 84.522270,38.145332 
	C65.330856,35.481998 47.188553,37.118431 31.025341,49.195518 
	C15.332544,60.921108 15.401108,84.695908 26.545921,97.535324 
	C33.829308,105.926178 43.436928,110.281807 53.711918,113.410553 
	C64.721237,116.762909 75.847801,119.729156 86.870132,123.040497 
	C90.834915,124.231598 92.411499,127.081276 92.097672,131.393372 
	C91.805771,135.404312 89.820869,137.418259 86.207245,138.263489 
	C83.335556,138.935150 80.457008,139.597778 77.555038,140.116333 
	C62.850025,142.744003 47.492256,137.145187 46.442181,119.901901 
	C46.366734,118.662933 45.385937,116.509628 44.648613,116.430267 
	C37.202438,115.628769 29.856943,114.865662 23.109819,119.898827 
	C13.322174,127.200142 15.407887,142.860977 21.631042,151.186966 
	C26.999813,158.369827 34.431561,162.187668 43.132069,165.716873 
M705.716858,130.169540 
	C720.110596,112.098129 734.519043,94.038391 748.890869,75.949562 
	C754.751465,68.573235 760.488831,61.098839 766.369690,53.738953 
	C768.998474,50.449066 768.691772,47.140182 766.185669,44.279171 
	C764.845825,42.749535 762.566528,41.475277 760.573730,41.237278 
	C758.375305,40.974743 756.020996,42.441853 753.731934,42.450417 
	C727.401062,42.548882 701.069763,42.505100 674.738525,42.528301 
	C672.596741,42.530190 670.455017,42.746010 668.303650,42.862946 
	C668.642700,49.100643 670.269592,54.350216 676.680115,56.012161 
	C679.291626,56.689224 682.246704,56.004936 685.045532,56.002377 
	C699.377747,55.989273 713.709900,55.996506 728.042114,55.996613 
	C732.937988,55.996647 737.833923,55.996624 743.540466,55.996624 
	C717.259888,88.913055 691.578186,121.079460 665.701721,153.489853 
	C664.821106,150.983704 664.163635,148.866287 663.342407,146.814423 
	C656.879089,130.665955 650.447998,114.504158 643.882629,98.397163 
	C636.654358,80.663864 629.200562,63.021954 622.062866,45.252728 
	C620.462341,41.268356 617.395752,39.233276 613.833008,39.219296 
	C609.859253,39.203693 606.462646,41.595009 604.798218,45.628628 
	C599.786316,57.774773 594.768250,69.918419 589.782349,82.075233 
	C581.614075,101.991028 573.351196,121.869522 565.405273,141.873779 
	C563.620239,146.367584 561.763367,151.407166 562.113525,156.030884 
	C562.561707,161.950180 567.179382,165.742081 574.172180,167.650803 
	C579.529297,154.776260 584.953552,141.740417 590.468079,128.487564 
	C605.029785,128.487564 619.681213,128.413071 634.328857,128.612411 
	C635.669922,128.630661 637.666016,130.115280 638.207153,131.402679 
	C642.223877,140.958893 645.844849,150.681152 649.837402,160.248032 
	C650.876709,162.738281 653.178894,166.951218 654.227905,166.755997 
	C657.107544,166.220047 659.666626,163.816650 662.270386,162.032471 
	C663.045227,161.501556 663.548462,160.574158 664.466797,159.482986 
	C667.106873,165.653076 672.091980,166.101059 677.648010,166.058701 
	C698.145142,165.902451 718.644226,165.996628 739.142578,165.996643 
	C748.449768,165.996643 757.756958,165.996643 766.739929,165.996643 
	C770.052917,161.690948 768.954407,158.155319 766.214661,154.512375 
	C763.348938,150.701782 759.406067,149.592880 755.056946,149.548645 
	C744.392212,149.440155 733.725708,149.513199 723.059875,149.513199 
	C712.625305,149.513199 702.190735,149.513184 690.361145,149.513184 
	C695.822449,142.623840 700.536926,136.676651 705.716858,130.169540 
M355.398132,87.567223 
	C361.135193,77.409500 356.805939,62.269051 348.210785,53.685211 
	C339.016632,44.503128 327.527710,40.331730 314.939789,38.261833 
	C296.119720,35.167152 278.414520,37.161816 262.758728,48.943424 
	C252.268188,56.837959 245.340851,67.378136 244.209412,80.462517 
	C243.112305,93.149803 243.573349,105.981049 243.580643,118.748932 
	C243.582794,122.508163 244.001892,126.353249 244.861465,130.010559 
	C248.066650,143.647919 256.322937,153.561417 267.975830,161.052673 
	C275.790710,166.076584 284.494659,168.601379 293.426422,169.254028 
	C301.597717,169.851120 309.958191,168.938416 318.147583,167.958237 
	C330.780914,166.446182 341.734741,161.089783 350.608826,151.808441 
	C358.273560,143.791977 360.293915,133.761353 357.659271,123.723007 
	C354.693939,112.424744 336.890594,106.415924 326.575745,112.291512 
	C324.734589,113.340294 323.127411,114.735123 324.081635,118.150414 
	C326.656738,127.367126 323.697540,133.307816 314.466827,136.136780 
	C308.668549,137.913803 302.053070,138.525879 296.036774,137.781311 
	C282.968292,136.163910 278.981110,129.320374 278.160614,118.542191 
	C277.391296,108.436646 277.563446,98.201935 278.139313,88.070564 
	C278.561646,80.640587 280.975616,72.050728 291.732483,69.951843 
	C296.392456,69.042580 301.199432,68.334801 305.924316,68.417099 
	C318.376373,68.634003 324.802246,76.073341 323.455597,88.078270 
	C322.804108,93.886032 324.876770,96.312698 330.651550,96.448181 
	C331.553497,96.469337 332.490570,96.140656 333.358582,96.286987 
	C342.137726,97.766998 349.535217,95.686783 355.398132,87.567223 
M458.042877,149.448837 
	C464.345001,141.969070 463.052643,132.551971 462.543304,124.297104 
	C461.898743,113.850906 454.808289,106.107780 444.619690,101.584808 
	C454.557892,93.506676 458.817169,83.765518 458.065399,71.578697 
	C457.213806,57.774353 446.409912,43.915928 433.269318,42.107803 
	C429.471161,41.585186 425.497314,42.474369 421.603027,42.491375 
	C407.782623,42.551743 393.961853,42.522572 380.141235,42.502544 
	C378.831329,42.500645 377.515076,42.195274 376.213531,42.261520 
	C374.370667,42.355320 371.575836,42.002563 370.886108,43.006939 
	C368.961365,45.809586 366.724487,49.202324 366.697266,52.380001 
	C366.404510,86.512817 366.504822,120.649094 366.523132,154.784409 
	C366.527008,162.019409 370.546234,165.980881 377.840088,165.989578 
	C394.158417,166.009033 410.477753,165.885422 426.794830,166.030212 
	C439.986847,166.147263 450.530762,161.372955 458.042877,149.448837 
M558.389954,64.373787 
	C553.787170,51.966003 544.998840,44.340363 531.972900,42.126900 
	C528.232971,41.491383 524.240723,42.474560 520.363159,42.491695 
	C506.702454,42.552071 493.041290,42.516441 479.380310,42.512909 
	C478.214783,42.512608 476.997955,42.693687 475.892212,42.427704 
	C469.410126,40.868408 465.828003,43.502117 465.541077,50.302727 
	C465.400757,53.628784 465.515137,56.965607 465.515137,60.297558 
	C465.515045,93.783669 465.455261,127.270126 465.650604,160.755081 
	C465.663574,162.977921 467.747803,167.121887 468.645508,167.061386 
	C471.981628,166.836594 475.621521,165.832886 478.414154,164.002792 
	C483.243744,160.837799 483.918610,155.374237 483.965027,150.051071 
	C484.064667,138.631866 483.995636,127.211212 483.995636,115.497299 
	C498.902618,115.497299 513.208862,115.383919 527.511475,115.560852 
	C532.302429,115.620117 536.454834,118.229095 538.263123,122.426353 
	C540.388550,127.359688 541.979797,132.822571 542.335083,138.153610 
	C542.972900,147.726288 542.515076,157.371979 542.515076,166.932800 
	C553.289307,167.882111 558.464722,161.576385 558.921814,153.871750 
	C559.286194,147.729263 558.893494,141.545837 559.017578,135.384232 
	C559.255127,123.589890 555.062622,114.056236 545.483154,107.751778 
	C548.969482,103.896652 552.955933,100.437561 555.759399,96.196472 
	C562.168396,86.500908 561.628357,75.819504 558.389954,64.373787 
M900.931641,165.299194 
	C900.952698,162.634125 901.023682,159.968292 900.982849,157.304169 
	C900.926575,153.627914 897.096313,149.568314 893.551147,149.604172 
	C892.008606,149.619766 890.473022,150.468231 888.932190,150.474960 
	C873.271667,150.543427 857.610413,150.560257 841.950134,150.464783 
	C839.778442,150.451569 837.610901,149.751328 835.484436,149.376724 
	C835.484436,130.382309 835.484497,112.058556 835.484497,93.734810 
	C835.484497,75.530739 835.484436,57.326668 835.484436,38.705120 
	C833.615601,39.378231 832.674255,39.918941 831.680847,40.043343 
	C823.208069,41.104347 819.028503,45.507504 819.019653,53.793621 
	C818.983398,87.614334 818.991333,121.435112 819.016113,155.255844 
	C819.020874,161.795532 823.190796,165.975098 829.753052,165.980637 
	C853.243896,166.000519 876.734741,165.960083 900.931641,165.299194 
M810.483826,107.500267 
	C810.618225,87.699699 810.746765,67.899078 810.892761,48.098598 
	C810.916992,44.819511 806.757385,40.641682 804.094604,41.174896 
	C801.271179,41.740280 798.409363,42.391525 795.551941,42.456074 
	C787.789795,42.631409 780.020996,42.516251 772.122925,42.516251 
	C772.352417,57.864277 782.846069,57.851112 793.516113,57.575806 
	C793.516113,59.920452 793.516113,61.724293 793.516113,63.528133 
	C793.516113,95.830803 793.516113,128.133469 793.516418,160.436142 
	C793.516418,161.601700 793.487549,162.768402 793.528320,163.932602 
	C793.638550,167.076279 795.574036,167.864700 798.258972,167.366180 
	C799.854797,167.069855 801.450745,166.602554 802.947144,165.974838 
	C807.245972,164.171494 810.848694,161.223404 810.883789,156.384094 
	C810.999512,140.424622 810.652954,124.461815 810.483826,107.500267 
z"/>
<path fill="#FEFEFE" opacity="1.000000" stroke="none" 
	d="
M127.514557,107.999710 
	C127.514557,100.505852 127.785721,93.499420 127.462227,86.520554 
	C126.595467,67.821510 135.740158,55.091022 151.091293,45.906364 
	C162.554688,39.047768 175.146805,35.885757 188.266037,37.170265 
	C208.049103,39.107227 225.536850,46.214336 235.568344,64.838608 
	C238.320419,69.948051 240.016190,76.178207 240.264481,81.976822 
	C240.904999,96.935730 241.383835,112.012398 240.223572,126.909332 
	C238.794662,145.255508 226.998734,156.743088 210.891525,163.870621 
	C205.096558,166.434937 198.730057,167.911545 192.479340,169.156052 
	C189.354538,169.778183 185.834564,168.192978 182.611664,168.583237 
	C168.179413,170.330841 155.911133,165.296677 144.927628,156.685150 
	C134.093124,148.190430 127.284531,137.346848 127.503021,122.986702 
	C127.576477,118.158760 127.514603,113.328766 127.514557,107.999710 
M165.570984,74.149750 
	C162.598282,77.818344 161.636444,81.979019 161.926758,86.684464 
	C162.223816,91.499237 161.992554,96.346596 161.992538,101.179695 
	C161.992538,106.029236 161.992538,110.878769 161.992538,115.097382 
	C175.709427,101.702423 189.354782,88.377312 203.004395,75.048058 
	C193.373840,66.461678 177.088882,65.929817 165.570984,74.149750 
M170.656799,135.869446 
	C177.800705,139.489960 185.353714,139.008087 192.757309,137.427505 
	C199.596024,135.967514 205.415146,132.208084 205.854568,124.566727 
	C206.450577,114.202896 206.002899,103.779053 206.002899,94.061424 
	C192.967331,106.900948 179.819702,119.850853 166.439560,133.029770 
	C167.597046,133.907135 168.746094,134.778107 170.656799,135.869446 
z"/>
<path fill="#FEFEFE" opacity="1.000000" stroke="none" 
	d="
M42.757607,165.567535 
	C34.431561,162.187668 26.999813,158.369827 21.631042,151.186966 
	C15.407887,142.860977 13.322174,127.200142 23.109819,119.898827 
	C29.856943,114.865662 37.202438,115.628769 44.648613,116.430267 
	C45.385937,116.509628 46.366734,118.662933 46.442181,119.901901 
	C47.492256,137.145187 62.850025,142.744003 77.555038,140.116333 
	C80.457008,139.597778 83.335556,138.935150 86.207245,138.263489 
	C89.820869,137.418259 91.805771,135.404312 92.097672,131.393372 
	C92.411499,127.081276 90.834915,124.231598 86.870132,123.040497 
	C75.847801,119.729156 64.721237,116.762909 53.711918,113.410553 
	C43.436928,110.281807 33.829308,105.926178 26.545921,97.535324 
	C15.401108,84.695908 15.332544,60.921108 31.025341,49.195518 
	C47.188553,37.118431 65.330856,35.481998 84.522270,38.145332 
	C94.067329,39.469963 102.866722,42.502712 110.586670,48.239948 
	C119.238754,54.669907 125.926712,67.388435 119.945625,77.590187 
	C118.094696,80.747246 114.778519,83.416367 111.539276,85.272270 
	C108.894615,86.787537 105.384247,86.873131 102.224854,87.392906 
	C93.905891,88.761505 93.113136,88.816238 92.193573,81.448166 
	C90.757416,69.940933 83.423813,65.983841 72.837128,66.529823 
	C68.112015,66.773506 63.203983,66.845230 58.776291,68.248589 
	C56.003284,69.127495 53.950764,72.320549 51.652084,74.554611 
	C51.512238,74.690529 52.042938,75.531334 52.278465,76.036316 
	C56.348343,84.762405 64.926582,85.142632 72.674591,86.996452 
	C88.349075,90.746788 104.199989,94.039055 116.480637,105.730873 
	C131.640381,120.163742 128.843002,149.460312 109.202759,160.762329 
	C100.660172,165.678162 91.613098,167.804352 82.281204,169.323654 
	C78.549782,169.931152 74.426987,168.071701 70.675377,168.630707 
	C61.156464,170.049057 52.192364,167.768677 42.757607,165.567535 
z"/>
<path fill="#FEFEFE" opacity="1.000000" stroke="none" 
	d="
M705.484131,130.449493 
	C700.536926,136.676651 695.822449,142.623840 690.361145,149.513184 
	C702.190735,149.513184 712.625305,149.513199 723.059875,149.513199 
	C733.725708,149.513199 744.392212,149.440155 755.056946,149.548645 
	C759.406067,149.592880 763.348938,150.701782 766.214661,154.512375 
	C768.954407,158.155319 770.052917,161.690948 766.739929,165.996643 
	C757.756958,165.996643 748.449768,165.996643 739.142578,165.996643 
	C718.644226,165.996628 698.145142,165.902451 677.648010,166.058701 
	C672.091980,166.101059 667.106873,165.653076 664.466797,159.482986 
	C663.548462,160.574158 663.045227,161.501556 662.270386,162.032471 
	C659.666626,163.816650 657.107544,166.220047 654.227905,166.755997 
	C653.178894,166.951218 650.876709,162.738281 649.837402,160.248032 
	C645.844849,150.681152 642.223877,140.958893 638.207153,131.402679 
	C637.666016,130.115280 635.669922,128.630661 634.328857,128.612411 
	C619.681213,128.413071 605.029785,128.487564 590.468079,128.487564 
	C584.953552,141.740417 579.529297,154.776260 574.172180,167.650803 
	C567.179382,165.742081 562.561707,161.950180 562.113525,156.030884 
	C561.763367,151.407166 563.620239,146.367584 565.405273,141.873779 
	C573.351196,121.869522 581.614075,101.991028 589.782349,82.075233 
	C594.768250,69.918419 599.786316,57.774773 604.798218,45.628628 
	C606.462646,41.595009 609.859253,39.203693 613.833008,39.219296 
	C617.395752,39.233276 620.462341,41.268356 622.062866,45.252728 
	C629.200562,63.021954 636.654358,80.663864 643.882629,98.397163 
	C650.447998,114.504158 656.879089,130.665955 663.342407,146.814423 
	C664.163635,148.866287 664.821106,150.983704 665.701721,153.489853 
	C691.578186,121.079460 717.259888,88.913055 743.540466,55.996624 
	C737.833923,55.996624 732.937988,55.996647 728.042114,55.996613 
	C713.709900,55.996506 699.377747,55.989273 685.045532,56.002377 
	C682.246704,56.004936 679.291626,56.689224 676.680115,56.012161 
	C670.269592,54.350216 668.642700,49.100643 668.303650,42.862946 
	C670.455017,42.746010 672.596741,42.530190 674.738525,42.528301 
	C701.069763,42.505100 727.401062,42.548882 753.731934,42.450417 
	C756.020996,42.441853 758.375305,40.974743 760.573730,41.237278 
	C762.566528,41.475277 764.845825,42.749535 766.185669,44.279171 
	C768.691772,47.140182 768.998474,50.449066 766.369690,53.738953 
	C760.488831,61.098839 754.751465,68.573235 748.890869,75.949562 
	C734.519043,94.038391 720.110596,112.098129 705.484131,130.449493 
M605.562988,115.011246 
	C614.278015,115.011246 622.993042,115.011246 632.069214,115.011246 
	C625.844849,99.262558 619.838257,84.064713 613.446899,67.893486 
	C607.073303,84.322609 601.226196,99.394508 595.167786,115.011246 
	C598.674988,115.011246 601.633728,115.011246 605.562988,115.011246 
z"/>
<path fill="#FEFEFE" opacity="1.000000" stroke="none" 
	d="
M355.134583,87.847107 
	C349.535217,95.686783 342.137726,97.766998 333.358582,96.286987 
	C332.490570,96.140656 331.553497,96.469337 330.651550,96.448181 
	C324.876770,96.312698 322.804108,93.886032 323.455597,88.078270 
	C324.802246,76.073341 318.376373,68.634003 305.924316,68.417099 
	C301.199432,68.334801 296.392456,69.042580 291.732483,69.951843 
	C280.975616,72.050728 278.561646,80.640587 278.139313,88.070564 
	C277.563446,98.201935 277.391296,108.436646 278.160614,118.542191 
	C278.981110,129.320374 282.968292,136.163910 296.036774,137.781311 
	C302.053070,138.525879 308.668549,137.913803 314.466827,136.136780 
	C323.697540,133.307816 326.656738,127.367126 324.081635,118.150414 
	C323.127411,114.735123 324.734589,113.340294 326.575745,112.291512 
	C336.890594,106.415924 354.693939,112.424744 357.659271,123.723007 
	C360.293915,133.761353 358.273560,143.791977 350.608826,151.808441 
	C341.734741,161.089783 330.780914,166.446182 318.147583,167.958237 
	C309.958191,168.938416 301.597717,169.851120 293.426422,169.254028 
	C284.494659,168.601379 275.790710,166.076584 267.975830,161.052673 
	C256.322937,153.561417 248.066650,143.647919 244.861465,130.010559 
	C244.001892,126.353249 243.582794,122.508163 243.580643,118.748932 
	C243.573349,105.981049 243.112305,93.149803 244.209412,80.462517 
	C245.340851,67.378136 252.268188,56.837959 262.758728,48.943424 
	C278.414520,37.161816 296.119720,35.167152 314.939789,38.261833 
	C327.527710,40.331730 339.016632,44.503128 348.210785,53.685211 
	C356.805939,62.269051 361.135193,77.409500 355.134583,87.847107 
z"/>
<path fill="#FEFEFE" opacity="1.000000" stroke="none" 
	d="
M457.960602,149.813690 
	C450.530762,161.372955 439.986847,166.147263 426.794830,166.030212 
	C410.477753,165.885422 394.158417,166.009033 377.840088,165.989578 
	C370.546234,165.980881 366.527008,162.019409 366.523132,154.784409 
	C366.504822,120.649094 366.404510,86.512817 366.697266,52.380001 
	C366.724487,49.202324 368.961365,45.809586 370.886108,43.006939 
	C371.575836,42.002563 374.370667,42.355320 376.213531,42.261520 
	C377.515076,42.195274 378.831329,42.500645 380.141235,42.502544 
	C393.961853,42.522572 407.782623,42.551743 421.603027,42.491375 
	C425.497314,42.474369 429.471161,41.585186 433.269318,42.107803 
	C446.409912,43.915928 457.213806,57.774353 458.065399,71.578697 
	C458.817169,83.765518 454.557892,93.506676 444.619690,101.584808 
	C454.808289,106.107780 461.898743,113.850906 462.543304,124.297104 
	C463.052643,132.551971 464.345001,141.969070 457.960602,149.813690 
M384.989044,134.494888 
	C384.989044,139.413025 384.989044,144.331177 384.989044,149.669495 
	C400.756317,149.669495 415.894348,149.962448 431.010223,149.511963 
	C436.363312,149.352417 441.054291,146.340195 443.278412,141.005020 
	C445.364746,136.000427 446.952728,131.273361 445.303772,125.224297 
	C443.028656,116.878288 437.920227,111.457092 429.031372,111.468513 
	C423.202728,111.476013 417.374054,111.471375 411.545410,111.471573 
	C402.765961,111.471870 393.986481,111.471649 384.989044,111.471649 
	C384.989044,119.191437 384.989044,126.344269 384.989044,134.494888 
M440.511780,72.881172 
	C439.154816,64.900406 436.271973,58.245987 426.848846,57.415390 
	C421.009308,56.900665 415.169617,56.225540 409.317413,56.055756 
	C401.253815,55.821804 393.178284,55.997128 385.302734,55.997128 
	C385.302734,69.385704 385.302734,82.106346 385.302734,95.002625 
	C399.060303,95.002625 412.513336,95.036201 425.965637,94.952660 
	C427.369965,94.943939 428.870514,94.449524 430.155792,93.827797 
	C438.601929,89.742279 440.859589,82.402702 440.511780,72.881172 
z"/>
<path fill="#FEFEFE" opacity="1.000000" stroke="none" 
	d="
M558.607117,64.715256 
	C561.628357,75.819504 562.168396,86.500908 555.759399,96.196472 
	C552.955933,100.437561 548.969482,103.896652 545.483154,107.751778 
	C555.062622,114.056236 559.255127,123.589890 559.017578,135.384232 
	C558.893494,141.545837 559.286194,147.729263 558.921814,153.871750 
	C558.464722,161.576385 553.289307,167.882111 542.515076,166.932800 
	C542.515076,157.371979 542.972900,147.726288 542.335083,138.153610 
	C541.979797,132.822571 540.388550,127.359688 538.263123,122.426353 
	C536.454834,118.229095 532.302429,115.620117 527.511475,115.560852 
	C513.208862,115.383919 498.902618,115.497299 483.995636,115.497299 
	C483.995636,127.211212 484.064667,138.631866 483.965027,150.051071 
	C483.918610,155.374237 483.243744,160.837799 478.414154,164.002792 
	C475.621521,165.832886 471.981628,166.836594 468.645508,167.061386 
	C467.747803,167.121887 465.663574,162.977921 465.650604,160.755081 
	C465.455261,127.270126 465.515045,93.783669 465.515137,60.297558 
	C465.515137,56.965607 465.400757,53.628784 465.541077,50.302727 
	C465.828003,43.502117 469.410126,40.868408 475.892212,42.427704 
	C476.997955,42.693687 478.214783,42.512608 479.380310,42.512909 
	C493.041290,42.516441 506.702454,42.552071 520.363159,42.491695 
	C524.240723,42.474560 528.232971,41.491383 531.972900,42.126900 
	C544.998840,44.340363 553.787170,51.966003 558.607117,64.715256 
M483.993591,94.383156 
	C483.993591,95.825478 483.993591,97.267799 483.993591,98.392838 
	C484.619202,98.786316 484.752106,98.943008 484.885406,98.943344 
	C496.382874,98.972145 507.880463,99.019653 519.377808,98.984070 
	C522.136658,98.975533 525.061890,99.229446 527.624634,98.437393 
	C540.441711,94.476181 545.601074,82.510201 541.194397,69.444176 
	C538.849609,62.491684 534.436584,58.133503 527.651733,57.848061 
	C513.223511,57.241062 498.751953,57.662685 483.993591,57.662685 
	C483.993591,69.783188 483.993591,81.592705 483.993591,94.383156 
z"/>
<path fill="#FFFFFF" opacity="1.000000" stroke="none" 
	d="
M900.578613,165.620819 
	C876.734741,165.960083 853.243896,166.000519 829.753052,165.980637 
	C823.190796,165.975098 819.020874,161.795532 819.016113,155.255844 
	C818.991333,121.435112 818.983398,87.614334 819.019653,53.793621 
	C819.028503,45.507504 823.208069,41.104347 831.680847,40.043343 
	C832.674255,39.918941 833.615601,39.378231 835.484436,38.705120 
	C835.484436,57.326668 835.484497,75.530739 835.484497,93.734810 
	C835.484497,112.058556 835.484436,130.382309 835.484436,149.376724 
	C837.610901,149.751328 839.778442,150.451569 841.950134,150.464783 
	C857.610413,150.560257 873.271667,150.543427 888.932190,150.474960 
	C890.473022,150.468231 892.008606,149.619766 893.551147,149.604172 
	C897.096313,149.568314 900.926575,153.627914 900.982849,157.304169 
	C901.023682,159.968292 900.952698,162.634125 900.578613,165.620819 
z"/>
<path fill="#FFFFFF" opacity="1.000000" stroke="none" 
	d="
M810.483887,108.000275 
	C810.652954,124.461815 810.999512,140.424622 810.883789,156.384094 
	C810.848694,161.223404 807.245972,164.171494 802.947144,165.974838 
	C801.450745,166.602554 799.854797,167.069855 798.258972,167.366180 
	C795.574036,167.864700 793.638550,167.076279 793.528320,163.932602 
	C793.487549,162.768402 793.516418,161.601700 793.516418,160.436142 
	C793.516113,128.133469 793.516113,95.830803 793.516113,63.528133 
	C793.516113,61.724293 793.516113,59.920452 793.516113,57.575806 
	C782.846069,57.851112 772.352417,57.864277 772.122925,42.516251 
	C780.020996,42.516251 787.789795,42.631409 795.551941,42.456074 
	C798.409363,42.391525 801.271179,41.740280 804.094604,41.174896 
	C806.757385,40.641682 810.916992,44.819511 810.892761,48.098598 
	C810.746765,67.899078 810.618225,87.699699 810.483887,108.000275 
z"/>
<path fill="#040404" opacity="1.000000" stroke="none" 
	d="
M165.881058,73.943085 
	C177.088882,65.929817 193.373840,66.461678 203.004395,75.048058 
	C189.354782,88.377312 175.709427,101.702423 161.992538,115.097382 
	C161.992538,110.878769 161.992538,106.029236 161.992538,101.179695 
	C161.992554,96.346596 162.223816,91.499237 161.926758,86.684464 
	C161.636444,81.979019 162.598282,77.818344 165.881058,73.943085 
z"/>
<path fill="#040404" opacity="1.000000" stroke="none" 
	d="
M170.275970,135.759262 
	C168.746094,134.778107 167.597046,133.907135 166.439560,133.029770 
	C179.819702,119.850853 192.967331,106.900948 206.002899,94.061424 
	C206.002899,103.779053 206.450577,114.202896 205.854568,124.566727 
	C205.415146,132.208084 199.596024,135.967514 192.757309,137.427505 
	C185.353714,139.008087 177.800705,139.489960 170.275970,135.759262 
z"/>
<path fill="#070707" opacity="1.000000" stroke="none" 
	d="
M605.077759,115.011246 
	C601.633728,115.011246 598.674988,115.011246 595.167786,115.011246 
	C601.226196,99.394508 607.073303,84.322609 613.446899,67.893486 
	C619.838257,84.064713 625.844849,99.262558 632.069214,115.011246 
	C622.993042,115.011246 614.278015,115.011246 605.077759,115.011246 
z"/>
<path fill="#060606" opacity="1.000000" stroke="none" 
	d="
M384.989044,133.996002 
	C384.989044,126.344269 384.989044,119.191437 384.989044,111.471649 
	C393.986481,111.471649 402.765961,111.471870 411.545410,111.471573 
	C417.374054,111.471375 423.202728,111.476013 429.031372,111.468513 
	C437.920227,111.457092 443.028656,116.878288 445.303772,125.224297 
	C446.952728,131.273361 445.364746,136.000427 443.278412,141.005020 
	C441.054291,146.340195 436.363312,149.352417 431.010223,149.511963 
	C415.894348,149.962448 400.756317,149.669495 384.989044,149.669495 
	C384.989044,144.331177 384.989044,139.413025 384.989044,133.996002 
z"/>
<path fill="#020202" opacity="1.000000" stroke="none" 
	d="
M440.511902,73.314377 
	C440.859589,82.402702 438.601929,89.742279 430.155792,93.827797 
	C428.870514,94.449524 427.369965,94.943939 425.965637,94.952660 
	C412.513336,95.036201 399.060303,95.002625 385.302734,95.002625 
	C385.302734,82.106346 385.302734,69.385704 385.302734,55.997128 
	C393.178284,55.997128 401.253815,55.821804 409.317413,56.055756 
	C415.169617,56.225540 421.009308,56.900665 426.848846,57.415390 
	C436.271973,58.245987 439.154816,64.900406 440.511902,73.314377 
z"/>
<path fill="#040404" opacity="1.000000" stroke="none" 
	d="
M483.993591,93.892685 
	C483.993591,81.592705 483.993591,69.783188 483.993591,57.662685 
	C498.751953,57.662685 513.223511,57.241062 527.651733,57.848061 
	C534.436584,58.133503 538.849609,62.491684 541.194397,69.444176 
	C545.601074,82.510201 540.441711,94.476181 527.624634,98.437393 
	C525.061890,99.229446 522.136658,98.975533 519.377808,98.984070 
	C507.880463,99.019653 496.382874,98.972145 484.885406,98.943344 
	C484.752106,98.943008 484.619202,98.786316 483.993591,98.392838 
	C483.993591,97.267799 483.993591,95.825478 483.993591,93.892685 
z"/>
</svg>