<svg version="1.1" id="Layer_1" xmlns="http://www.w3.org/2000/svg" xmlns:xlink="http://www.w3.org/1999/xlink" x="0px" y="0px"
	 width="100%" viewBox="0 0 200 200" enable-background="new 0 0 200 200" xml:space="preserve">
<path fill="#000000" opacity="1.000000" stroke="none" 
	d="
M120.000000,201.000000 
	C80.024696,201.000000 40.549400,201.000000 1.037050,201.000000 
	C1.037050,134.399734 1.037050,67.799454 1.037050,1.099581 
	C67.558464,1.099581 134.117126,1.099581 200.837891,1.099581 
	C200.837891,67.666351 200.837891,134.333145 200.837891,201.000000 
	C174.133072,201.000000 147.316528,201.000000 120.000000,201.000000 
M185.927155,58.248039 
	C183.504379,50.282413 176.663544,46.872677 170.235397,43.043800 
	C158.433029,36.013813 146.624527,28.994083 134.734818,21.263556 
	C133.240051,20.426579 131.793320,19.484268 130.239960,18.775743 
	C127.469475,17.512051 124.634567,16.389595 121.291573,14.766213 
	C118.199036,13.000173 115.215805,10.991208 111.983139,9.536592 
	C108.767227,8.089518 105.368294,6.897660 101.930077,6.127614 
	C94.726402,4.514228 89.219711,9.113789 83.651833,12.243665 
	C65.475868,22.460936 47.624992,33.255173 29.600874,43.744675 
	C23.843784,47.095127 17.906412,50.160473 16.204412,58.248604 
	C16.245171,68.281136 16.285929,78.313660 16.085081,89.211090 
	C16.153954,97.356544 16.222826,105.501991 16.088936,114.620071 
	C16.043875,123.835365 15.967303,133.050766 15.999382,142.265793 
	C16.002832,143.256760 16.637903,144.245529 16.941761,145.994568 
	C18.702642,148.714676 19.886520,152.250183 22.342451,153.988068 
	C27.741796,157.808762 33.774075,160.738647 39.566238,163.999756 
	C48.982307,169.301239 58.412998,174.576752 68.058578,180.551788 
	C71.740852,182.622620 75.423126,184.693451 79.709984,187.110260 
	C84.705742,190.063004 89.377228,194.316025 94.773735,195.661850 
	C102.742165,197.649078 110.664658,195.574219 117.396538,190.161667 
	C119.653816,188.346771 122.322647,187.025970 124.862167,185.582794 
	C142.245956,175.703827 159.756302,166.039993 176.965271,155.866058 
	C181.520828,153.172806 185.406815,149.101822 186.002014,142.150269 
	C186.003693,132.798264 186.005386,123.446251 186.802704,113.697235 
	C186.869766,106.181046 186.984512,98.664604 186.945831,91.148956 
	C186.940781,90.167168 186.147614,89.189430 185.952667,87.262009 
	C185.910614,77.830734 185.868576,68.399467 185.927155,58.248039 
z"/>
<path fill="#F8FDFD" opacity="1.000000" stroke="none" 
	d="
M121.826599,15.208082 
	C124.634567,16.389595 127.469475,17.512051 130.239960,18.775743 
	C131.793320,19.484268 133.240051,20.426579 134.412521,21.629326 
	C132.763916,24.705650 131.142410,27.314659 130.168350,30.146372 
	C127.562355,37.722271 125.234077,45.393700 122.522697,53.881023 
	C128.753082,51.851643 133.047989,53.697643 137.387192,56.653294 
	C152.478622,66.932785 167.747787,76.951324 183.125992,87.337914 
	C184.108231,87.807762 184.913864,88.008789 185.719482,88.209816 
	C186.147614,89.189430 186.940781,90.167168 186.945831,91.148956 
	C186.984512,98.664604 186.869766,106.181046 186.081329,113.749481 
	C184.560333,114.193520 183.760696,114.585297 182.656677,115.122353 
	C166.714813,125.731178 151.112701,136.248184 135.422485,146.632019 
	C129.129684,150.796616 122.545471,149.748718 118.646309,144.293793 
	C114.759018,138.855453 116.059914,132.459045 122.154312,127.726013 
	C127.810455,123.333344 133.569397,119.073288 139.264023,114.729858 
	C145.147461,110.242416 151.007904,105.724854 157.164490,101.000969 
	C143.475601,90.549919 130.399734,80.566902 117.211075,70.497772 
	C116.671822,71.953201 116.043594,73.479675 115.535606,75.045174 
	C107.988213,98.304535 100.481361,121.577080 92.912277,144.829361 
	C88.357071,158.822998 83.710762,172.786972 79.105392,186.764282 
	C75.423126,184.693451 71.740852,182.622620 68.271172,180.043442 
	C71.793579,169.508423 75.103401,159.481766 78.772568,148.366486 
	C71.401588,150.760178 66.799599,147.033401 61.946987,143.788605 
	C48.429977,134.750168 34.841034,125.819313 21.104446,116.561028 
	C19.382826,115.399872 17.837261,114.523659 16.291697,113.647446 
	C16.222826,105.501991 16.153954,97.356544 16.482540,88.760941 
	C17.292694,87.973396 17.705385,87.636009 18.452408,87.190178 
	C32.559616,77.811951 46.332497,68.542160 60.369751,59.217331 
	C60.883163,58.917175 61.132198,58.672073 61.412926,58.350975 
	C61.444622,58.274979 61.438747,58.439556 61.694820,58.373169 
	C62.329700,57.960518 62.708508,57.614250 63.373619,57.189453 
	C64.102486,56.737526 64.545044,56.364128 65.255981,55.960987 
	C65.741196,55.663231 65.958031,55.395222 66.130722,55.113495 
	C66.086571,55.099773 66.098251,55.191490 66.393776,55.155685 
	C67.137741,54.754406 67.586182,54.388931 68.020432,54.009514 
	C68.006233,53.995571 68.015259,54.033627 68.281494,54.020409 
	C68.801552,53.779114 69.055382,53.551033 69.248199,53.289566 
	C69.187195,53.256176 69.213608,53.392742 69.636292,53.348778 
	C73.693794,53.890621 77.328613,54.476421 80.978645,55.030922 
	C80.993866,54.999626 80.938004,55.041187 81.050125,55.313728 
	C81.759682,56.080299 82.357124,56.574337 82.977554,57.038795 
	C83.000549,57.009216 82.932800,57.041172 83.016205,57.385681 
	C83.828285,59.477188 84.556961,61.224182 85.237602,63.349438 
	C85.216629,64.488655 85.243675,65.249611 85.133644,66.335365 
	C84.865448,67.350639 84.734337,68.041115 84.697517,68.882019 
	C84.791801,69.032448 84.634102,68.714424 84.380737,68.904907 
	C83.338333,70.347404 82.549278,71.599411 81.816055,72.870140 
	C81.871887,72.888863 81.817444,72.784431 81.507706,72.886703 
	C79.731400,74.261894 78.264839,75.534813 76.854141,76.845764 
	C76.910004,76.883789 76.858604,76.758789 76.575531,76.815628 
	C75.891930,77.266815 75.491394,77.661171 75.058807,78.031898 
	C75.026741,78.008270 75.039078,78.086967 74.778572,78.122559 
	C74.313446,78.430168 74.108818,78.702179 73.682266,79.021896 
	C73.162521,79.207733 72.979500,79.437355 72.613403,79.840439 
	C72.053123,80.227585 71.790703,80.532784 71.256256,80.905991 
	C70.296028,81.579269 69.607841,82.184540 68.612030,82.869934 
	C67.522163,83.625145 66.739899,84.300247 65.726868,85.031784 
	C65.192711,85.239983 64.998245,85.480003 64.643913,85.870567 
	C64.155197,86.212845 63.935287,86.492836 63.777500,86.797836 
	C63.839619,86.822861 63.775219,86.705421 63.524918,86.750977 
	C63.050671,87.037201 62.826725,87.277870 62.621391,87.706924 
	C62.639996,87.895309 62.560444,87.525139 62.287392,87.609558 
	C61.631233,88.093292 61.248131,88.492607 60.918312,88.929939 
	C60.971592,88.967957 60.901554,88.857361 60.597885,88.922409 
	C59.534866,89.665085 58.775513,90.342712 57.780518,91.071571 
	C57.225853,91.262672 57.025436,91.501900 56.639553,91.917114 
	C55.563705,92.667587 54.791931,93.341438 54.010456,94.007111 
	C54.000751,93.998940 54.011379,94.020973 53.749329,94.062943 
	C53.289154,94.383293 53.091022,94.661674 52.931583,94.957245 
	C52.970272,94.974426 52.947380,94.892914 52.679070,94.946487 
	C52.199326,95.280251 51.987892,95.560448 51.830681,95.853882 
	C51.884899,95.867119 51.859211,95.758492 51.575981,95.815094 
	C50.888420,96.260521 50.484089,96.649338 49.834038,97.090683 
	C49.381302,97.394463 49.174282,97.645714 48.697777,97.954102 
	C48.217052,98.294434 48.005821,98.577621 47.857845,98.881271 
	C47.921101,98.901741 47.835640,98.799889 47.509018,98.875992 
	C42.400032,102.489098 47.483837,102.709038 49.043144,104.372055 
	C49.391716,104.852028 49.685104,104.985962 50.180088,105.267715 
	C51.190662,106.073929 52.057045,106.606575 52.944572,107.084839 
	C52.965717,107.030457 52.877880,107.107285 52.997555,107.361801 
	C53.587738,107.910172 54.058243,108.204041 54.635559,108.321426 
	C54.742367,108.144951 54.572994,108.521141 54.741344,108.763046 
	C55.573757,109.405136 56.237816,109.805321 57.084740,110.481544 
	C66.173538,117.515442 75.079475,124.273293 84.358063,131.313919 
	C96.959885,92.263947 109.393242,53.736015 121.826599,15.208082 
z"/>
<path fill="#0695D8" opacity="1.000000" stroke="none" 
	d="
M79.407692,186.937271 
	C83.710762,172.786972 88.357071,158.822998 92.912277,144.829361 
	C100.481361,121.577080 107.988213,98.304535 115.535606,75.045174 
	C116.043594,73.479675 116.671822,71.953201 117.211075,70.497772 
	C130.399734,80.566902 143.475601,90.549919 157.164490,101.000969 
	C151.007904,105.724854 145.147461,110.242416 139.264023,114.729858 
	C133.569397,119.073288 127.810455,123.333344 122.154312,127.726013 
	C116.059914,132.459045 114.759018,138.855453 118.646309,144.293793 
	C122.545471,149.748718 129.129684,150.796616 135.422485,146.632019 
	C151.112701,136.248184 166.714813,125.731178 183.057953,115.219635 
	C184.171066,116.974670 184.843964,118.763741 184.939590,120.583153 
	C185.333755,128.082413 185.552734,135.590881 185.836105,143.095978 
	C185.406815,149.101822 181.520828,153.172806 176.965271,155.866058 
	C159.756302,166.039993 142.245956,175.703827 124.862167,185.582794 
	C122.322647,187.025970 119.653816,188.346771 117.396538,190.161667 
	C110.664658,195.574219 102.742165,197.649078 94.773735,195.661850 
	C89.377228,194.316025 84.705742,190.063004 79.407692,186.937271 
z"/>
<path fill="#0566B1" opacity="1.000000" stroke="none" 
	d="
M68.919647,82.789818 
	C69.607841,82.184540 70.296028,81.579269 71.572556,80.855347 
	C72.411011,80.410622 72.661140,80.084549 72.911270,79.758484 
	C72.979500,79.437355 73.162521,79.207733 73.928787,78.959297 
	C74.611183,78.594978 74.825127,78.340973 75.039078,78.086967 
	C75.039078,78.086967 75.026741,78.008270 75.362717,78.003525 
	C76.085335,77.585457 76.471970,77.172119 76.858604,76.758789 
	C76.858604,76.758789 76.910004,76.883789 77.235680,76.902771 
	C78.980057,75.542641 80.398750,74.163536 81.817444,72.784431 
	C81.817444,72.784431 81.871887,72.888863 82.162140,72.795563 
	C83.179626,71.372986 83.906860,70.043709 84.634102,68.714424 
	C84.634102,68.714424 84.791801,69.032448 85.005806,68.841370 
	C85.236786,67.770378 85.253761,66.890472 85.270737,66.010567 
	C85.243675,65.249611 85.216629,64.488655 85.454956,63.069183 
	C86.144958,59.918022 86.550941,57.435051 82.932800,57.041172 
	C82.932800,57.041172 83.000549,57.009216 82.958221,56.705574 
	C82.256592,55.948349 81.597298,55.494770 80.938004,55.041187 
	C80.938004,55.041187 80.993866,54.999626 80.927414,54.655518 
	C77.182777,51.415447 73.321442,50.841473 69.213608,53.392742 
	C69.213608,53.392742 69.187195,53.256176 68.973351,53.268795 
	C68.511421,53.532150 68.263336,53.782887 68.015259,54.033623 
	C68.015259,54.033627 68.006233,53.995571 67.705971,54.010590 
	C66.969894,54.414238 66.534073,54.802864 66.098251,55.191490 
	C66.098251,55.191490 66.086571,55.099773 65.869095,55.152306 
	C65.430283,55.466801 65.208939,55.728767 64.987602,55.990734 
	C64.545044,56.364128 64.102486,56.737526 63.235710,56.954185 
	C62.353916,57.344822 61.896332,57.892189 61.438747,58.439556 
	C61.438747,58.439556 61.444622,58.274979 61.116577,58.327049 
	C60.560818,58.676876 60.333099,58.974628 60.105377,59.272377 
	C46.332497,68.542160 32.559616,77.811951 18.281517,86.784775 
	C17.519581,84.710686 17.061073,82.935822 17.041014,81.156013 
	C16.953255,73.370537 16.992620,65.583626 16.985859,57.797230 
	C17.906412,50.160473 23.843784,47.095127 29.600874,43.744675 
	C47.624992,33.255173 65.475868,22.460936 83.651833,12.243665 
	C89.219711,9.113789 94.726402,4.514228 101.930077,6.127614 
	C105.368294,6.897660 108.767227,8.089518 111.983139,9.536592 
	C115.215805,10.991208 118.199036,13.000173 121.559090,14.987148 
	C109.393242,53.736015 96.959885,92.263947 84.358063,131.313919 
	C75.079475,124.273293 66.173538,117.515442 56.994083,110.164093 
	C56.004707,109.220779 55.288853,108.870956 54.572998,108.521133 
	C54.572994,108.521141 54.742367,108.144951 54.657803,107.987770 
	C54.008118,107.589485 53.442997,107.348389 52.877876,107.107285 
	C52.877880,107.107285 52.965717,107.030457 52.841606,106.774811 
	C51.823631,106.010834 50.929764,105.502495 50.035900,104.994156 
	C49.685104,104.985962 49.391716,104.852028 48.925117,104.000076 
	C48.408218,101.871841 48.121929,100.335869 47.835640,98.799889 
	C47.835640,98.799889 47.921101,98.901741 48.128105,98.828804 
	C48.545830,98.469574 48.756550,98.183273 48.967270,97.896973 
	C49.174282,97.645714 49.381302,97.394463 50.139503,97.067276 
	C51.080196,96.580399 51.469704,96.169441 51.859207,95.758492 
	C51.859211,95.758492 51.884899,95.867119 52.102455,95.809753 
	C52.529133,95.465889 52.738258,95.179405 52.947380,94.892914 
	C52.947380,94.892914 52.970272,94.974426 53.181274,94.894104 
	C53.598644,94.549515 53.805012,94.285240 54.011379,94.020973 
	C54.011379,94.020973 54.000751,93.998940 54.340553,93.987328 
	C55.434780,93.263977 56.189205,92.552238 56.943626,91.840500 
	C57.025436,91.501900 57.225853,91.262672 58.140816,91.072716 
	C59.458359,90.300873 60.179958,89.579117 60.901558,88.857361 
	C60.901554,88.857361 60.971592,88.967957 61.252663,88.936584 
	C61.875969,88.445190 62.218204,87.985161 62.560440,87.525139 
	C62.560444,87.525139 62.639996,87.895309 62.910370,87.754028 
	C63.378899,87.310303 63.577057,87.007858 63.775219,86.705421 
	C63.775219,86.705421 63.839619,86.822861 64.060905,86.763603 
	C64.492371,86.405655 64.702545,86.106972 64.912720,85.808281 
	C64.998245,85.480003 65.192711,85.239983 66.096169,85.042664 
	C67.437370,84.261337 68.178513,83.525581 68.919647,82.789818 
z"/>
<path fill="#0767B1" opacity="1.000000" stroke="none" 
	d="
M21.280497,116.845978 
	C34.841034,125.819313 48.429977,134.750168 61.946987,143.788605 
	C66.799599,147.033401 71.401588,150.760178 78.772568,148.366486 
	C75.103401,159.481766 71.793579,169.508423 68.160645,179.699158 
	C58.412998,174.576752 48.982307,169.301239 39.566238,163.999756 
	C33.774075,160.738647 27.741796,157.808762 22.342451,153.988068 
	C19.886520,152.250183 18.702642,148.714676 16.989241,145.128510 
	C17.036720,135.067566 17.036720,125.872688 17.036720,116.396721 
	C18.752188,116.578323 20.016340,116.712151 21.280497,116.845978 
z"/>
<path fill="#0694D7" opacity="1.000000" stroke="none" 
	d="
M182.949371,87.069092 
	C167.747787,76.951324 152.478622,66.932785 137.387192,56.653294 
	C133.047989,53.697643 128.753082,51.851643 122.522697,53.881023 
	C125.234077,45.393700 127.562355,37.722271 130.168350,30.146372 
	C131.142410,27.314659 132.763916,24.705650 134.454407,21.982590 
	C146.624527,28.994083 158.433029,36.013813 170.235397,43.043800 
	C176.663544,46.872677 183.504379,50.282413 185.590515,58.917206 
	C185.165588,67.317513 185.178375,75.052299 184.899200,82.776543 
	C184.846695,84.228989 183.629257,85.639328 182.949371,87.069092 
z"/>
<path fill="#38709C" opacity="1.000000" stroke="none" 
	d="
M21.104443,116.561035 
	C20.016340,116.712151 18.752188,116.578323 17.036720,116.396721 
	C17.036720,125.872688 17.036720,135.067566 17.008350,144.748871 
	C16.637903,144.245529 16.002832,143.256760 15.999382,142.265793 
	C15.967303,133.050766 16.043875,123.835365 16.190315,114.133759 
	C17.837261,114.523659 19.382826,115.399872 21.104443,116.561035 
z"/>
<path fill="#366F9B" opacity="1.000000" stroke="none" 
	d="
M16.595135,58.022919 
	C16.992620,65.583626 16.953255,73.370537 17.041014,81.156013 
	C17.061073,82.935822 17.519581,84.710686 17.947189,86.893219 
	C17.705385,87.636009 17.292694,87.973396 16.603344,88.328491 
	C16.285929,78.313660 16.245171,68.281136 16.595135,58.022919 
z"/>
<path fill="#6CB1D4" opacity="1.000000" stroke="none" 
	d="
M185.919067,142.623123 
	C185.552734,135.590881 185.333755,128.082413 184.939590,120.583153 
	C184.843964,118.763741 184.171066,116.974670 183.362335,115.074371 
	C183.760696,114.585297 184.560333,114.193520 185.683517,113.947990 
	C186.005386,123.446251 186.003693,132.798264 185.919067,142.623123 
z"/>
<path fill="#6BB0D4" opacity="1.000000" stroke="none" 
	d="
M183.125992,87.337914 
	C183.629257,85.639328 184.846695,84.228989 184.899200,82.776543 
	C185.178375,75.052299 185.165588,67.317513 185.540207,59.277287 
	C185.868576,68.399467 185.910614,77.830734 185.836075,87.735916 
	C184.913864,88.008789 184.108231,87.807762 183.125992,87.337914 
z"/>
<path fill="#2770A9" opacity="1.000000" stroke="none" 
	d="
M69.636292,53.348778 
	C73.321442,50.841473 77.182777,51.415447 80.912201,54.686813 
	C77.328613,54.476421 73.693794,53.890621 69.636292,53.348778 
z"/>
<path fill="#2770A9" opacity="1.000000" stroke="none" 
	d="
M47.509018,98.875992 
	C48.121929,100.335869 48.408218,101.871841 48.812531,103.779800 
	C47.483837,102.709038 42.400032,102.489098 47.509018,98.875992 
z"/>
<path fill="#2770A9" opacity="1.000000" stroke="none" 
	d="
M83.016205,57.385681 
	C86.550941,57.435051 86.144958,59.918022 85.502991,62.690926 
	C84.556961,61.224182 83.828285,59.477188 83.016205,57.385681 
z"/>
<path fill="#2770A9" opacity="1.000000" stroke="none" 
	d="
M81.507706,72.886703 
	C80.398750,74.163536 78.980057,75.542641 77.179817,76.864738 
	C78.264839,75.534813 79.731400,74.261894 81.507706,72.886703 
z"/>
<path fill="#2770A9" opacity="1.000000" stroke="none" 
	d="
M84.380737,68.904907 
	C83.906860,70.043709 83.179626,71.372986 82.106308,72.776840 
	C82.549278,71.599411 83.338333,70.347404 84.380737,68.904907 
z"/>
<path fill="#2770A9" opacity="1.000000" stroke="none" 
	d="
M68.612030,82.869934 
	C68.178513,83.525581 67.437370,84.261337 66.326935,84.986221 
	C66.739899,84.300247 67.522163,83.625145 68.612030,82.869934 
z"/>
<path fill="#2770A9" opacity="1.000000" stroke="none" 
	d="
M60.597885,88.922409 
	C60.179958,89.579117 59.458359,90.300873 58.376461,91.021484 
	C58.775513,90.342712 59.534866,89.665085 60.597885,88.922409 
z"/>
<path fill="#2770A9" opacity="1.000000" stroke="none" 
	d="
M50.180088,105.267715 
	C50.929764,105.502495 51.823631,106.010834 52.820465,106.829193 
	C52.057045,106.606575 51.190662,106.073929 50.180088,105.267715 
z"/>
<path fill="#2770A9" opacity="1.000000" stroke="none" 
	d="
M56.639553,91.917114 
	C56.189205,92.552238 55.434780,93.263977 54.350258,93.995499 
	C54.791931,93.341438 55.563705,92.667587 56.639553,91.917114 
z"/>
<path fill="#2770A9" opacity="1.000000" stroke="none" 
	d="
M85.133652,66.335365 
	C85.253761,66.890472 85.236786,67.770378 84.911522,68.690933 
	C84.734337,68.041115 84.865448,67.350639 85.133652,66.335365 
z"/>
<path fill="#2770A9" opacity="1.000000" stroke="none" 
	d="
M61.694820,58.373169 
	C61.896332,57.892189 62.353916,57.344822 62.949409,57.032719 
	C62.708508,57.614250 62.329700,57.960518 61.694820,58.373169 
z"/>
<path fill="#2770A9" opacity="1.000000" stroke="none" 
	d="
M54.741348,108.763046 
	C55.288853,108.870956 56.004707,109.220779 56.811222,109.888046 
	C56.237816,109.805321 55.573757,109.405136 54.741348,108.763046 
z"/>
<path fill="#2770A9" opacity="1.000000" stroke="none" 
	d="
M81.050125,55.313728 
	C81.597298,55.494770 82.256592,55.948349 82.935226,56.735153 
	C82.357124,56.574337 81.759682,56.080299 81.050125,55.313728 
z"/>
<path fill="#2770A9" opacity="1.000000" stroke="none" 
	d="
M66.393776,55.155685 
	C66.534073,54.802864 66.969894,54.414238 67.720169,54.024536 
	C67.586182,54.388931 67.137741,54.754406 66.393776,55.155685 
z"/>
<path fill="#2770A9" opacity="1.000000" stroke="none" 
	d="
M52.997551,107.361801 
	C53.442997,107.348389 54.008118,107.589485 54.550995,108.164246 
	C54.058243,108.204041 53.587738,107.910172 52.997551,107.361801 
z"/>
<path fill="#2770A9" opacity="1.000000" stroke="none" 
	d="
M51.575981,95.815094 
	C51.469704,96.169441 51.080196,96.580399 50.385223,97.014755 
	C50.484089,96.649338 50.888420,96.260521 51.575981,95.815094 
z"/>
<path fill="#2770A9" opacity="1.000000" stroke="none" 
	d="
M62.287388,87.609558 
	C62.218204,87.985161 61.875969,88.445190 61.199379,88.898575 
	C61.248131,88.492607 61.631233,88.093292 62.287388,87.609558 
z"/>
<path fill="#2770A9" opacity="1.000000" stroke="none" 
	d="
M76.575531,76.815628 
	C76.471970,77.172119 76.085335,77.585457 75.394783,78.027161 
	C75.491394,77.661171 75.891930,77.266815 76.575531,76.815628 
z"/>
<path fill="#2770A9" opacity="1.000000" stroke="none" 
	d="
M53.749329,94.062943 
	C53.805012,94.285240 53.598644,94.549515 53.142586,94.876923 
	C53.091022,94.661674 53.289154,94.383293 53.749329,94.062943 
z"/>
<path fill="#2770A9" opacity="1.000000" stroke="none" 
	d="
M52.679070,94.946487 
	C52.738258,95.179405 52.529133,95.465889 52.048233,95.796509 
	C51.987892,95.560448 52.199326,95.280251 52.679070,94.946487 
z"/>
<path fill="#2770A9" opacity="1.000000" stroke="none" 
	d="
M48.697777,97.954102 
	C48.756550,98.183273 48.545830,98.469574 48.064850,98.808334 
	C48.005821,98.577621 48.217052,98.294434 48.697777,97.954102 
z"/>
<path fill="#2770A9" opacity="1.000000" stroke="none" 
	d="
M63.524918,86.750977 
	C63.577057,87.007858 63.378899,87.310303 62.891762,87.565636 
	C62.826725,87.277870 63.050671,87.037201 63.524918,86.750977 
z"/>
<path fill="#2770A9" opacity="1.000000" stroke="none" 
	d="
M64.643913,85.870567 
	C64.702545,86.106972 64.492371,86.405655 63.998787,86.738586 
	C63.935287,86.492836 64.155197,86.212845 64.643913,85.870567 
z"/>
<path fill="#2770A9" opacity="1.000000" stroke="none" 
	d="
M72.613403,79.840439 
	C72.661140,80.084549 72.411011,80.410622 71.844582,80.787338 
	C71.790703,80.532784 72.053123,80.227585 72.613403,79.840439 
z"/>
<path fill="#2770A9" opacity="1.000000" stroke="none" 
	d="
M74.778572,78.122559 
	C74.825127,78.340973 74.611183,78.594978 74.150711,78.911591 
	C74.108818,78.702179 74.313446,78.430168 74.778572,78.122559 
z"/>
<path fill="#2770A9" opacity="1.000000" stroke="none" 
	d="
M60.369755,59.217331 
	C60.333099,58.974628 60.560818,58.676876 61.084885,58.403046 
	C61.132198,58.672073 60.883163,58.917175 60.369755,59.217331 
z"/>
<path fill="#2770A9" opacity="1.000000" stroke="none" 
	d="
M65.255981,55.960987 
	C65.208939,55.728767 65.430283,55.466801 65.913239,55.166023 
	C65.958031,55.395222 65.741196,55.663231 65.255981,55.960987 
z"/>
<path fill="#2770A9" opacity="1.000000" stroke="none" 
	d="
M68.281494,54.020409 
	C68.263336,53.782887 68.511421,53.532150 69.034363,53.302185 
	C69.055382,53.551033 68.801552,53.779114 68.281494,54.020409 
z"/>
</svg>